<svg width="48" height="48" viewBox="0 0 48 48" fill="none" xmlns="http://www.w3.org/2000/svg">
<rect width="48" height="48" rx="24" fill="#000EFF"/>
<path d="M6.5 23V16.75H10.25V18H7.75V19.25H10.25V20.5H7.75V23H6.5ZM12.75 23V16.75H16.5V18H17.75V19.25H16.5V21.75H17.75V23H16.5V21.75H15.25V20.5H14V23H12.75ZM14 19.25H16.45V18H14V19.25ZM20.25 23V18H21.5V16.75H24V18H25.25V23H24V20.5H21.5V23H20.25ZM21.5 19.25H24V18.05H21.5V19.25ZM27.75 23V16.75H29V18H30.25V19.25H31.5V20.5H32.75V16.75H34V23H32.75V21.75H31.5V20.5H30.25V19.25H29V23H27.75ZM37.75 18V16.75H41.5V18H37.75ZM40.25 21.75V20.5H37.75V19.25H36.5V18H37.75V19.25H40.25V20.5H41.5V21.75H40.25ZM36.5 23V21.75H40.25V23H36.5ZM6.5 33V31.75H7.75V33H6.5ZM10.25 33V28H11.5V26.75H14V28H15.25V33H14V30.5H11.5V33H10.25ZM11.5 29.25H14V28.05H11.5V29.25ZM17.75 33V26.75H21.5V28H22.75V29.25H21.5V30.5H19V33H17.75ZM19 29.25H21.45V28H19V29.25ZM25.25 33V26.75H29V28H30.25V29.25H29V30.5H26.5V33H25.25ZM26.5 29.25H28.95V28H26.5V29.25Z" fill="white"/>
<path d="M40.25 29.25V26.75H41.5V29.25H40.25ZM39 30.5V29.25H40.25V30.5H39ZM37.75 33V30.5H39V33H37.75Z" fill="white" fill-opacity="0.5"/>
</svg>
